<?xml version="1.0" encoding="iso-8859-1"?>
<!-- Generator: Adobe Illustrator 19.0.0, SVG Export Plug-In . SVG Version: 6.00 Build 0)  -->
<svg version="1.1" id="Capa_1" xmlns="http://www.w3.org/2000/svg" xmlns:xlink="http://www.w3.org/1999/xlink" x="0px" y="0px"
	 viewBox="0 0 491.52 491.52" style="enable-background:new 0 0 491.52 491.52;" xml:space="preserve">
<circle style="fill:#334D5C;" cx="245.76" cy="245.76" r="245.76"/>
<g>
	<path style="fill:#FFFFFF;" d="M227.501,266.958c-1.79,5.012-4.127,9.764-7.057,14.1c-0.892,1.32-1.87,2.575-2.857,3.822
		l81.91,45.37c1.889-6.766,5.336-12.862,9.938-17.91L227.501,266.958z"/>
	<path style="fill:#FFFFFF;" d="M224.906,218.364c0.757,1.566,1.453,3.162,2.082,4.797c0.178,0.463,0.371,0.916,0.539,1.383
		l81.906-45.366c-4.601-5.048-8.049-11.144-9.938-17.909l-81.91,45.368c2.563,3.237,4.804,6.729,6.7,10.436
		C224.502,217.498,224.697,217.934,224.906,218.364z"/>
</g>
<g>
	<path style="fill:#44C4A1;" d="M372.351,116.853c3.707,3.438,6.822,7.5,9.186,12.016
		C379.179,124.344,376.057,120.295,372.351,116.853z"/>
	<path style="fill:#44C4A1;" d="M381.774,129.361c0.633,1.246,1.203,2.529,1.718,3.84
		C382.978,131.889,382.405,130.61,381.774,129.361z"/>
	<path style="fill:#44C4A1;" d="M383.946,134.442c0.396,1.105,0.744,2.233,1.053,3.377
		C384.691,136.674,384.341,135.549,383.946,134.442z"/>
	<path style="fill:#44C4A1;" d="M368.413,113.595c1.369,1.006,2.677,2.088,3.92,3.24
		C371.089,115.681,369.782,114.601,368.413,113.595z"/>
	<path style="fill:#44C4A1;" d="M383.074,166.599c2.245-5.308,3.486-11.145,3.486-17.27c0-1.71-0.119-3.389-0.307-5.048
		c0.189,1.658,0.307,3.339,0.307,5.048C386.56,155.455,385.319,161.291,383.074,166.599z"/>
	<path style="fill:#44C4A1;" d="M329.699,191.883c-3.894-1.154-7.569-2.823-10.943-4.93c24.815-17.552,43.564-43.654,49.654-73.36
		c-7.351-5.403-16.396-8.633-26.219-8.633c-24.504,0-44.368,19.865-44.368,44.369c0,4.143,0.61,8.136,1.672,11.941
		c1.89,6.766,5.337,12.861,9.938,17.909C314.837,185.104,321.798,189.566,329.699,191.883z"/>
	<path style="fill:#44C4A1;" d="M335.117,193.081c-1.712-0.28-3.399-0.631-5.039-1.101
		C331.72,192.446,333.402,192.805,335.117,193.081z"/>
	<path style="fill:#44C4A1;" d="M370.413,183.566c5.479-4.52,9.853-10.331,12.66-16.967
		C380.267,173.234,375.892,179.045,370.413,183.566z"/>
	<path style="fill:#44C4A1;" d="M342.176,193.696c-1.945-0.001-3.849-0.165-5.725-0.412
		C338.33,193.528,340.231,193.696,342.176,193.696z"/>
	<path style="fill:#44C4A1;" d="M385.388,139.336c0.265,1.144,0.467,2.312,0.643,3.488
		C385.857,141.646,385.653,140.482,385.388,139.336z"/>
</g>
<g>
	<path style="fill:#FCD462;" d="M326.229,383.551c-1.121-0.438-2.224-0.912-3.298-1.438
		C324.009,382.635,325.104,383.118,326.229,383.551z"/>
	<path style="fill:#FCD462;" d="M329.873,384.79c-0.984-0.287-1.953-0.615-2.908-0.969
		C327.923,384.172,328.886,384.505,329.873,384.79z"/>
	<path style="fill:#FCD462;" d="M361.33,382.173c-0.97,0.466-1.953,0.905-2.961,1.299
		C359.377,383.078,360.36,382.639,361.33,382.173z"/>
	<path style="fill:#FCD462;" d="M382.723,324.194c0.563,1.255,1.053,2.55,1.498,3.863
		C383.779,326.741,383.283,325.451,382.723,324.194z"/>
	<path style="fill:#FCD462;" d="M337.883,386.343c-0.613-0.06-1.21-0.169-1.815-0.254
		C336.674,386.173,337.269,386.284,337.883,386.343z"/>
	<path style="fill:#FCD462;" d="M333.768,385.738c-0.826-0.161-1.634-0.368-2.443-0.574
		C332.135,385.368,332.941,385.578,333.768,385.738z"/>
	<path style="fill:#FCD462;" d="M386.56,342.192c0,13.784-6.285,26.099-16.147,34.237C380.275,368.29,386.56,355.975,386.56,342.192
		c0-1.578-0.089-3.135-0.249-4.67C386.472,339.056,386.56,340.613,386.56,342.192z"/>
	<path style="fill:#FCD462;" d="M372.332,309.73c4.351,4.038,7.899,8.928,10.364,14.408c-6.92-15.497-22.436-26.315-40.505-26.315
		c-12.991,0-24.643,5.619-32.756,14.517c-4.602,5.048-8.05,11.144-9.938,17.91c-1.063,3.804-1.673,7.797-1.673,11.941
		c0,17.56,10.227,32.691,25.026,39.884c-3.484-1.71-6.714-3.864-9.617-6.383C339.937,361.464,361.821,337.843,372.332,309.73z"/>
	<path style="fill:#FCD462;" d="M384.381,328.494c0.389,1.187,0.701,2.406,0.99,3.636
		C385.085,330.899,384.767,329.683,384.381,328.494z"/>
	<path style="fill:#FCD462;" d="M385.582,332.952c0.25,1.172,0.422,2.373,0.577,3.577
		C386.005,335.323,385.831,334.124,385.582,332.952z"/>
</g>
<g>
	<path style="fill:#E56353;" d="M229.629,231.812c0.36,1.586,0.629,3.206,0.866,4.835
		C230.259,235.017,229.987,233.4,229.629,231.812z"/>
	<path style="fill:#E56353;" d="M160.822,308.443c2.389,0.274,4.808,0.45,7.271,0.45c5.978,0,11.738-0.886,17.218-2.438
		c-5.48,1.552-11.24,2.438-17.218,2.438C165.63,308.893,163.21,308.72,160.822,308.443z"/>
	<path style="fill:#E56353;" d="M227.684,225.06c0.522,1.497,0.975,3.025,1.385,4.571
		C228.66,228.083,228.204,226.559,227.684,225.06z"/>
	<path style="fill:#E56353;" d="M151.745,306.678c-1.806-0.487-3.584-1.044-5.323-1.685
		C148.163,305.631,149.936,306.194,151.745,306.678z"/>
	<path style="fill:#E56353;" d="M203.392,298.111c-4.588,3.099-9.632,5.558-14.971,7.375
		C193.76,303.669,198.804,301.21,203.392,298.111z"/>
	<path style="fill:#E56353;" d="M158.878,308.146c-1.773-0.263-3.529-0.576-5.251-0.983
		C155.35,307.568,157.102,307.885,158.878,308.146z"/>
	<path style="fill:#E56353;" d="M224.285,217.074c-1.896-3.707-4.137-7.199-6.7-10.436c-3.193-4.034-6.871-7.649-10.941-10.797
		C213.977,201.512,220.016,208.766,224.285,217.074z"/>
	<path style="fill:#E56353;" d="M228.788,262.978c1.552-5.48,2.438-11.24,2.438-17.218c0-2.388-0.159-4.736-0.418-7.055
		c0.26,2.317,0.418,4.667,0.418,7.055C231.226,251.738,230.34,257.498,228.788,262.978z"/>
	<path style="fill:#E56353;" d="M206.643,195.84c-10.671-8.252-24.017-13.214-38.55-13.214c-34.867,0-63.134,28.266-63.134,63.134
		c0,26.746,16.659,49.553,40.144,58.751c-2.157-0.847-4.27-1.785-6.305-2.854C178.147,281.587,207.526,241.209,206.643,195.84z"/>
	<path style="fill:#E56353;" d="M220.444,281.058c2.93-4.337,5.267-9.089,7.057-14.1c0.104-0.291,0.219-0.577,0.319-0.87
		C226.002,271.427,223.544,276.47,220.444,281.058z"/>
	<path style="fill:#E56353;" d="M226.988,223.161c-0.629-1.635-1.326-3.231-2.082-4.797
		C225.665,219.928,226.359,221.529,226.988,223.161z"/>
</g>
<path style="fill:#3EA69B;" d="M318.756,186.953c3.374,2.107,7.049,3.776,10.943,4.93c0.124,0.037,0.253,0.062,0.378,0.097
	c1.64,0.47,3.327,0.821,5.039,1.101c0.444,0.073,0.886,0.144,1.334,0.204c1.876,0.247,3.78,0.411,5.725,0.412
	c0.005,0,0.01,0.002,0.015,0.002c10.721,0,20.554-3.803,28.222-10.132c5.479-4.52,9.853-10.332,12.66-16.967
	c2.245-5.308,3.486-11.144,3.486-17.27c0-1.71-0.117-3.39-0.307-5.048c-0.056-0.492-0.15-0.969-0.222-1.457
	c-0.175-1.176-0.377-2.344-0.643-3.488c-0.119-0.51-0.253-1.012-0.39-1.517c-0.309-1.144-0.656-2.271-1.053-3.377
	c-0.149-0.416-0.294-0.831-0.454-1.241c-0.515-1.311-1.084-2.594-1.718-3.84c-0.082-0.162-0.153-0.331-0.237-0.493
	c-2.364-4.516-5.479-8.579-9.186-12.016c-0.007-0.006-0.013-0.011-0.019-0.017c-1.243-1.152-2.551-2.234-3.92-3.24
	c-0.002-0.002-0.002-0.002-0.002-0.002l-0.001-0.001C362.32,143.299,343.571,169.401,318.756,186.953z"/>
<path style="fill:#F6C358;" d="M386.56,342.192c0-1.579-0.088-3.136-0.249-4.67c-0.036-0.336-0.109-0.659-0.152-0.993
	c-0.155-1.204-0.327-2.405-0.577-3.577c-0.06-0.279-0.147-0.546-0.211-0.822c-0.289-1.23-0.601-2.449-0.99-3.636
	c-0.049-0.149-0.11-0.29-0.16-0.438c-0.445-1.313-0.935-2.608-1.498-3.863c-0.009-0.018-0.018-0.037-0.027-0.056
	c-2.465-5.48-6.013-10.37-10.364-14.408c-10.511,28.113-32.395,51.734-59.101,65.963c2.903,2.519,6.134,4.672,9.617,6.383
	c0.028,0.013,0.055,0.026,0.082,0.038c1.074,0.525,2.177,1,3.298,1.438c0.243,0.095,0.491,0.179,0.736,0.27
	c0.955,0.354,1.924,0.681,2.908,0.969c0.478,0.14,0.967,0.249,1.452,0.374c0.808,0.206,1.617,0.413,2.443,0.574
	c0.757,0.147,1.53,0.243,2.3,0.351c0.604,0.085,1.202,0.194,1.815,0.254c1.417,0.138,2.854,0.217,4.308,0.217
	c5.716,0,11.16-1.119,16.178-3.087c1.008-0.395,1.991-0.834,2.961-1.299c3.259-1.564,6.325-3.468,9.083-5.745
	C380.275,368.29,386.56,355.975,386.56,342.192z"/>
<path style="fill:#D15241;" d="M227.82,266.088c0.349-1.027,0.672-2.061,0.969-3.11c1.552-5.48,2.438-11.24,2.438-17.218
	c0-2.388-0.158-4.738-0.418-7.055c-0.077-0.696-0.214-1.37-0.313-2.058c-0.238-1.629-0.506-3.249-0.866-4.835
	c-0.166-0.736-0.368-1.455-0.56-2.181c-0.41-1.546-0.863-3.075-1.385-4.571c-0.059-0.169-0.096-0.348-0.156-0.516
	c-0.169-0.467-0.361-0.921-0.539-1.383c-0.63-1.633-1.324-3.234-2.082-4.797c-0.209-0.43-0.404-0.866-0.621-1.29
	c-4.269-8.308-10.308-15.562-17.641-21.233l0-0.001l0,0c0.883,45.369-28.496,85.747-67.845,105.818
	c2.035,1.069,4.149,2.007,6.305,2.854c0.436,0.171,0.879,0.321,1.318,0.482c1.739,0.64,3.516,1.198,5.323,1.685
	c0.625,0.169,1.249,0.334,1.882,0.484c1.722,0.408,3.479,0.72,5.251,0.983c0.65,0.096,1.289,0.221,1.945,0.297
	c2.388,0.277,4.808,0.45,7.271,0.45c5.978,0,11.738-0.886,17.218-2.438c1.05-0.297,2.084-0.62,3.11-0.969
	c5.339-1.817,10.383-4.276,14.971-7.375c5.397-3.646,10.162-8.136,14.195-13.231c0.987-1.247,1.966-2.502,2.857-3.822
	C223.544,276.47,226.002,271.427,227.82,266.088z"/>
<g>
</g>
<g>
</g>
<g>
</g>
<g>
</g>
<g>
</g>
<g>
</g>
<g>
</g>
<g>
</g>
<g>
</g>
<g>
</g>
<g>
</g>
<g>
</g>
<g>
</g>
<g>
</g>
<g>
</g>
</svg>
